REM DIRINDEX 1\2,1\3
REM DIRNAME cjc039,folder01,folder02
TITLE ""
FILE "0321-0360.mp3" MP3
  TRACK 01 AUDIO
    TITLE "0:"
    INDEX 01 00:00:00
  TRACK 02 AUDIO
    TITLE "2:cjc039_0321"
    INDEX 01 00:00:29
  TRACK 03 AUDIO
    TITLE "0:"
    INDEX 01 00:01:68
  TRACK 04 AUDIO
    TITLE "2:cjc039_0322"
    INDEX 01 00:02:42
  TRACK 05 AUDIO
    TITLE "0:"
    INDEX 01 00:04:17
  TRACK 06 AUDIO
    TITLE "2:cjc039_0323"
    INDEX 01 00:04:68
  TRACK 07 AUDIO
    TITLE "0:"
    INDEX 01 00:06:14
  TRACK 08 AUDIO
    TITLE "2:cjc039_0324"
    INDEX 01 00:06:73
  TRACK 09 AUDIO
    TITLE "0:"
    INDEX 01 00:08:38
  TRACK 10 AUDIO
    TITLE "2:cjc039_0325"
    INDEX 01 00:09:16
  TRACK 11 AUDIO
    TITLE "0:"
    INDEX 01 00:10:59
  TRACK 12 AUDIO
    TITLE "2:cjc039_0326"
    INDEX 01 00:11:44
  TRACK 13 AUDIO
    TITLE "0:"
    INDEX 01 00:12:71
  TRACK 14 AUDIO
    TITLE "2:cjc039_0327"
    INDEX 01 00:13:51
  TRACK 15 AUDIO
    TITLE "0:"
    INDEX 01 00:15:07
  TRACK 16 AUDIO
    TITLE "2:cjc039_0328"
    INDEX 01 00:15:66
  TRACK 17 AUDIO
    TITLE "0:"
    INDEX 01 00:17:29
  TRACK 18 AUDIO
    TITLE "2:cjc039_0329"
    INDEX 01 00:18:13
  TRACK 19 AUDIO
    TITLE "0:"
    INDEX 01 00:19:38
  TRACK 20 AUDIO
    TITLE "2:cjc039_0330"
    INDEX 01 00:20:20
  TRACK 21 AUDIO
    TITLE "0:"
    INDEX 01 00:21:41
  TRACK 22 AUDIO
    TITLE "2:cjc039_0331"
    INDEX 01 00:22:15
  TRACK 23 AUDIO
    TITLE "0:"
    INDEX 01 00:23:38
  TRACK 24 AUDIO
    TITLE "2:cjc039_0332"
    INDEX 01 00:24:20
  TRACK 25 AUDIO
    TITLE "0:"
    INDEX 01 00:25:62
  TRACK 26 AUDIO
    TITLE "2:cjc039_0333"
    INDEX 01 00:26:38
  TRACK 27 AUDIO
    TITLE "0:"
    INDEX 01 00:27:43
  TRACK 28 AUDIO
    TITLE "2:cjc039_0334"
    INDEX 01 00:28:23
  TRACK 29 AUDIO
    TITLE "0:"
    INDEX 01 00:29:64
  TRACK 30 AUDIO
    TITLE "2:cjc039_0335"
    INDEX 01 00:30:44
  TRACK 31 AUDIO
    TITLE "0:"
    INDEX 01 00:32:07
  TRACK 32 AUDIO
    TITLE "2:cjc039_0336"
    INDEX 01 00:32:60
  TRACK 33 AUDIO
    TITLE "0:"
    INDEX 01 00:34:26
  TRACK 34 AUDIO
    TITLE "2:cjc039_0337"
    INDEX 01 00:35:08
  TRACK 35 AUDIO
    TITLE "0:"
    INDEX 01 00:36:44
  TRACK 36 AUDIO
    TITLE "2:cjc039_0338"
    INDEX 01 00:37:22
  TRACK 37 AUDIO
    TITLE "0:"
    INDEX 01 00:38:61
  TRACK 38 AUDIO
    TITLE "2:cjc039_0339"
    INDEX 01 00:39:45
  TRACK 39 AUDIO
    TITLE "0:"
    INDEX 01 00:40:73
  TRACK 40 AUDIO
    TITLE "2:cjc039_0340"
    INDEX 01 00:41:42
  TRACK 41 AUDIO
    TITLE "0:"
    INDEX 01 00:42:70
  TRACK 42 AUDIO
    TITLE "2:cjc039_0341"
    INDEX 01 00:43:46
  TRACK 43 AUDIO
    TITLE "0:"
    INDEX 01 00:45:10
  TRACK 44 AUDIO
    TITLE "2:cjc039_0342"
    INDEX 01 00:45:71
  TRACK 45 AUDIO
    TITLE "0:"
    INDEX 01 00:47:34
  TRACK 46 AUDIO
    TITLE "2:cjc039_0343"
    INDEX 01 00:48:16
  TRACK 47 AUDIO
    TITLE "0:"
    INDEX 01 00:49:33
  TRACK 48 AUDIO
    TITLE "2:cjc039_0344"
    INDEX 01 00:50:15
  TRACK 49 AUDIO
    TITLE "0:"
    INDEX 01 00:51:44
  TRACK 50 AUDIO
    TITLE "2:cjc039_0345"
    INDEX 01 00:52:28
  TRACK 51 AUDIO
    TITLE "0:"
    INDEX 01 00:53:47
  TRACK 52 AUDIO
    TITLE "2:cjc039_0346"
    INDEX 01 00:54:27
  TRACK 53 AUDIO
    TITLE "0:"
    INDEX 01 00:56:08
  TRACK 54 AUDIO
    TITLE "2:cjc039_0347"
    INDEX 01 00:56:63
  TRACK 55 AUDIO
    TITLE "0:"
    INDEX 01 00:58:11
  TRACK 56 AUDIO
    TITLE "2:cjc039_0348"
    INDEX 01 00:58:60
  TRACK 57 AUDIO
    TITLE "0:"
    INDEX 01 01:00:33
  TRACK 58 AUDIO
    TITLE "2:cjc039_0349"
    INDEX 01 01:01:03
  TRACK 59 AUDIO
    TITLE "0:"
    INDEX 01 01:02:20
  TRACK 60 AUDIO
    TITLE "2:cjc039_0350"
    INDEX 01 01:02:69
  TRACK 61 AUDIO
    TITLE "0:"
    INDEX 01 01:04:31
  TRACK 62 AUDIO
    TITLE "2:cjc039_0351"
    INDEX 01 01:05:09
  TRACK 63 AUDIO
    TITLE "0:"
    INDEX 01 01:06:38
  TRACK 64 AUDIO
    TITLE "2:cjc039_0352"
    INDEX 01 01:07:15
  TRACK 65 AUDIO
    TITLE "0:"
    INDEX 01 01:08:31
  TRACK 66 AUDIO
    TITLE "2:cjc039_0353"
    INDEX 01 01:09:10
  TRACK 67 AUDIO
    TITLE "0:"
    INDEX 01 01:10:51
  TRACK 68 AUDIO
    TITLE "2:cjc039_0354"
    INDEX 01 01:11:33
  TRACK 69 AUDIO
    TITLE "0:"
    INDEX 01 01:13:04
  TRACK 70 AUDIO
    TITLE "2:cjc039_0355"
    INDEX 01 01:13:51
  TRACK 71 AUDIO
    TITLE "0:"
    INDEX 01 01:14:68
  TRACK 72 AUDIO
    TITLE "2:cjc039_0356"
    INDEX 01 01:15:44
  TRACK 73 AUDIO
    TITLE "0:"
    INDEX 01 01:17:26
  TRACK 74 AUDIO
    TITLE "2:cjc039_0357"
    INDEX 01 01:18:02
  TRACK 75 AUDIO
    TITLE "0:"
    INDEX 01 01:19:17
  TRACK 76 AUDIO
    TITLE "2:cjc039_0358"
    INDEX 01 01:20:00
  TRACK 77 AUDIO
    TITLE "0:"
    INDEX 01 01:21:20
  TRACK 78 AUDIO
    TITLE "2:cjc039_0359"
    INDEX 01 01:22:01
  TRACK 79 AUDIO
    TITLE "0:"
    INDEX 01 01:23:32
  TRACK 80 AUDIO
    TITLE "2:cjc039_0360"
    INDEX 01 01:24:12
  TRACK 81 AUDIO
    TITLE "0:"
    INDEX 01 01:25:58
